<?xml version="1.0" encoding="utf-8"?>
<svg xmlns="http://www.w3.org/2000/svg" width="174" height="174" class="segno"><path transform="scale(6)" class="qrline" stroke="#16234b" d="M0 0.5h7m1 0h1m2 0h2m1 0h1m1 0h1m2 0h2m1 0h7m-29 1h1m5 0h1m1 0h2m1 0h4m1 0h1m3 0h1m1 0h1m5 0h1m-29 1h1m1 0h3m1 0h1m3 0h1m1 0h2m2 0h1m1 0h1m3 0h1m1 0h3m1 0h1m-29 1h1m1 0h3m1 0h1m1 0h2m3 0h2m1 0h2m2 0h1m1 0h1m1 0h3m1 0h1m-29 1h1m1 0h3m1 0h1m3 0h1m1 0h1m2 0h2m2 0h1m2 0h1m1 0h3m1 0h1m-29 1h1m5 0h1m3 0h1m1 0h3m4 0h2m1 0h1m5 0h1m-29 1h7m1 0h1m1 0h1m1 0h1m1 0h1m1 0h1m1 0h1m1 0h1m1 0h7m-21 1h3m1 0h1m2 0h1m1 0h2m-19 1h1m1 0h2m1 0h3m1 0h1m2 0h1m1 0h1m1 0h4m2 0h1m2 0h1m1 0h2m-28 1h2m4 0h3m2 0h1m1 0h1m1 0h1m1 0h7m3 0h1m-29 1h3m1 0h5m2 0h1m1 0h2m1 0h2m2 0h1m1 0h2m2 0h2m-28 1h3m2 0h1m1 0h1m2 0h1m2 0h3m2 0h2m2 0h1m5 0h1m-29 1h1m2 0h1m1 0h2m2 0h1m1 0h1m5 0h2m1 0h1m2 0h1m1 0h2m-27 1h1m1 0h1m2 0h1m2 0h1m3 0h1m1 0h2m3 0h1m2 0h1m3 0h3m-27 1h3m1 0h1m1 0h1m2 0h3m2 0h4m1 0h4m1 0h3m-29 1h1m2 0h3m1 0h1m1 0h2m4 0h1m2 0h1m1 0h1m2 0h1m3 0h1m-27 1h1m4 0h2m1 0h2m1 0h1m1 0h1m1 0h1m1 0h1m1 0h2m1 0h3m1 0h1m-27 1h1m2 0h2m3 0h2m4 0h1m1 0h1m2 0h1m2 0h1m1 0h3m-28 1h1m1 0h1m3 0h1m1 0h2m2 0h6m3 0h1m4 0h1m-19 1h1m2 0h9m1 0h3m2 0h1m-26 1h3m2 0h1m3 0h2m1 0h6m1 0h7m-19 1h2m10 0h1m3 0h5m-29 1h7m1 0h1m2 0h2m1 0h1m1 0h1m2 0h2m1 0h1m1 0h2m1 0h1m-28 1h1m5 0h1m1 0h1m1 0h1m2 0h4m3 0h1m3 0h2m1 0h1m-28 1h1m1 0h3m1 0h1m2 0h1m1 0h2m2 0h1m1 0h1m2 0h5m1 0h1m-27 1h1m1 0h3m1 0h1m1 0h4m3 0h1m1 0h1m1 0h3m2 0h2m2 0h1m-29 1h1m1 0h3m1 0h1m1 0h3m1 0h2m3 0h3m1 0h1m1 0h1m2 0h1m1 0h1m-29 1h1m5 0h1m4 0h3m2 0h1m3 0h3m1 0h2m1 0h1m-28 1h7m1 0h1m1 0h1m1 0h2m1 0h1m3 0h3m1 0h1m1 0h1m1 0h1"/></svg>
